<?xml version="1.0" encoding="utf-8"?>
<!-- Generator: Adobe Illustrator 16.0.0, SVG Export Plug-In . SVG Version: 6.00 Build 0)  -->
<!DOCTYPE svg PUBLIC "-//W3C//DTD SVG 1.1//EN" "http://www.w3.org/Graphics/SVG/1.1/DTD/svg11.dtd">
<svg xmlns="http://www.w3.org/2000/svg" xmlns:xlink="http://www.w3.org/1999/xlink" version="1.1" x="0px" y="0px" width="1400px" height="1400px" viewBox="0 0 1400 1400" enable-background="new 0 0 1400 1400" xml:space="preserve">
<g id="Background">
	
</g>
<g id="Objects">
	<g>
		<g>
			<path fill="#67A3D3" d="M446.9,842c0,0,298.2,61,582.8-149.1C1029.7,692.9,948.4,1092.7,446.9,842z"/>
			<path fill="#162A53" d="M941.6,279.5c0,0-218.3,186-349.2,342.3c90.3-44.9,203.5-94.4,281.5-105.1c0,0-227.3,127.6-360.7,217.6     c-35.4,69.2-20.2,112.5,96,94.1c18.4-28.7,90.8-138.5,122.2-143.8c29.6-4.9,16.8,79,11.2,109.5c23.7-7.7,49.4-16.5,77.1-26.8     L941.6,279.5z"/>
			<path fill="#67A3D3" d="M685.9,890.4c0,0-63.8,42.8-132.8,28.5c-69.1-14.3-82.7-24.5-105.2,9.3c0,0,46.4-15.9,80.1,6.6     c0,0,89.6,50.8,199.7-29.1C837.7,825.6,685.9,890.4,685.9,890.4z"/>
			<path fill="#67A3D3" d="M437.8,905.4c0,0,16-31.4,57.1-20.3c0,0-26.2-33.6-63.5-1.7c0,0-26.5,18-51.6-0.2     C354.8,864.8,380.7,950,437.8,905.4z"/>
		</g>
	</g>
</g>
<g id="Text">
	<g>
		<text transform="matrix(1 0 0 1 168.4902 1197.0991)"><tspan x="0" y="0" fill="#162A53" font-family="'Roboto-Black'" font-size="140.6372">COM</tspan><tspan x="309.4" y="0" fill="#162A53" font-family="'Roboto-Black'" font-size="140.6372" letter-spacing="-12">P</tspan><tspan x="386.9" y="0" fill="#162A53" font-family="'Roboto-Black'" font-size="140.6372">A</tspan><tspan x="476.6" y="0" fill="#162A53" font-family="'Roboto-Black'" font-size="140.6372" letter-spacing="-1">N</tspan><tspan x="574" y="0" fill="#162A53" font-family="'Roboto-Black'" font-size="140.6372">Y </tspan><tspan x="698.8" y="0" fill="#162A53" font-family="'Roboto-Black'" font-size="140.6372" letter-spacing="-1">L</tspan><tspan x="775.6" y="0" fill="#162A53" font-family="'Roboto-Black'" font-size="140.6372">OGO</tspan></text>
	</g>
</g>
</svg>
